<svg width="16" height="16" viewBox="0 0 16 16" fill="none" xmlns="http://www.w3.org/2000/svg">
<path d="M11 3.5V2.9C11 2.05992 11 1.63988 10.8365 1.31901C10.6927 1.03677 10.4632 0.8073 10.181 0.66349C9.86012 0.5 9.44008 0.5 8.6 0.5H7.4C6.55992 0.5 6.13988 0.5 5.81901 0.66349C5.53677 0.8073 5.3073 1.03677 5.16349 1.31901C5 1.63988 5 2.05992 5 2.9V3.5M1.25 3.5H14.75M13.25 3.5V11.9C13.25 13.1601 13.25 13.7902 13.0048 14.2715C12.789 14.6948 12.4448 15.039 12.0215 15.2548C11.5402 15.5 10.9101 15.5 9.65 15.5H6.35C5.08988 15.5 4.45982 15.5 3.97852 15.2548C3.55516 15.039 3.21095 14.6948 2.99524 14.2715C2.75 13.7902 2.75 13.1601 2.75 11.9V3.5" stroke="black" stroke-linecap="round" stroke-linejoin="round"/>
</svg>
