<svg width="21" height="21" viewBox="0 0 21 21" fill="none" xmlns="http://www.w3.org/2000/svg">
<mask id="path-1-outside-1_174_13335" maskUnits="userSpaceOnUse" x="5.5" y="2.5" width="12" height="17" fill="black">
<rect fill="white" x="5.5" y="2.5" width="12" height="17"/>
<path d="M9.62109 18.5H6.67188V4.4082H15.9004V6.83984H9.62109V10.6191H15.3535V12.9531H9.62109V18.5Z"/>
</mask>
<path d="M9.62109 18.5H6.67188V4.4082H15.9004V6.83984H9.62109V10.6191H15.3535V12.9531H9.62109V18.5Z" fill="#F76B15"/>
<path d="M9.62109 18.5V19.5H10.6211V18.5H9.62109ZM6.67188 18.5H5.67188V19.5H6.67188V18.5ZM6.67188 4.4082V3.4082H5.67188V4.4082H6.67188ZM15.9004 4.4082H16.9004V3.4082H15.9004V4.4082ZM15.9004 6.83984V7.83984H16.9004V6.83984H15.9004ZM9.62109 6.83984V5.83984H8.62109V6.83984H9.62109ZM9.62109 10.6191H8.62109V11.6191H9.62109V10.6191ZM15.3535 10.6191H16.3535V9.61914H15.3535V10.6191ZM15.3535 12.9531V13.9531H16.3535V12.9531H15.3535ZM9.62109 12.9531V11.9531H8.62109V12.9531H9.62109ZM9.62109 17.5H6.67188V19.5H9.62109V17.5ZM7.67188 18.5V4.4082H5.67188V18.5H7.67188ZM6.67188 5.4082H15.9004V3.4082H6.67188V5.4082ZM14.9004 4.4082V6.83984H16.9004V4.4082H14.9004ZM15.9004 5.83984H9.62109V7.83984H15.9004V5.83984ZM8.62109 6.83984V10.6191H10.6211V6.83984H8.62109ZM9.62109 11.6191H15.3535V9.61914H9.62109V11.6191ZM14.3535 10.6191V12.9531H16.3535V10.6191H14.3535ZM15.3535 11.9531H9.62109V13.9531H15.3535V11.9531ZM8.62109 12.9531V18.5H10.6211V12.9531H8.62109Z" fill="#F76B15" mask="url(#path-1-outside-1_174_13335)"/>
<mask id="path-3-outside-2_174_13335" maskUnits="userSpaceOnUse" x="4.5" y="1.5" width="12" height="17" fill="black">
<rect fill="white" x="4.5" y="1.5" width="12" height="17"/>
<path d="M8.62109 17.5H5.67188V3.4082H14.9004V5.83984H8.62109V9.61914H14.3535V11.9531H8.62109V17.5Z"/>
</mask>
<path d="M8.62109 17.5H5.67188V3.4082H14.9004V5.83984H8.62109V9.61914H14.3535V11.9531H8.62109V17.5Z" fill="white"/>
<path d="M8.62109 17.5V18.5H9.62109V17.5H8.62109ZM5.67188 17.5H4.67188V18.5H5.67188V17.5ZM5.67188 3.4082V2.4082H4.67188V3.4082H5.67188ZM14.9004 3.4082H15.9004V2.4082H14.9004V3.4082ZM14.9004 5.83984V6.83984H15.9004V5.83984H14.9004ZM8.62109 5.83984V4.83984H7.62109V5.83984H8.62109ZM8.62109 9.61914H7.62109V10.6191H8.62109V9.61914ZM14.3535 9.61914H15.3535V8.61914H14.3535V9.61914ZM14.3535 11.9531V12.9531H15.3535V11.9531H14.3535ZM8.62109 11.9531V10.9531H7.62109V11.9531H8.62109ZM8.62109 16.5H5.67188V18.5H8.62109V16.5ZM6.67188 17.5V3.4082H4.67188V17.5H6.67188ZM5.67188 4.4082H14.9004V2.4082H5.67188V4.4082ZM13.9004 3.4082V5.83984H15.9004V3.4082H13.9004ZM14.9004 4.83984H8.62109V6.83984H14.9004V4.83984ZM7.62109 5.83984V9.61914H9.62109V5.83984H7.62109ZM8.62109 10.6191H14.3535V8.61914H8.62109V10.6191ZM13.3535 9.61914V11.9531H15.3535V9.61914H13.3535ZM14.3535 10.9531H8.62109V12.9531H14.3535V10.9531ZM7.62109 11.9531V17.5H9.62109V11.9531H7.62109Z" fill="#F76B15" mask="url(#path-3-outside-2_174_13335)"/>
</svg>
